<svg width="54" height="51" viewBox="0 0 54 51" fill="none" xmlns="http://www.w3.org/2000/svg">
<path d="M26.0489 0.927051C26.3483 0.00574047 27.6517 0.00573986 27.9511 0.92705L33.5109 18.0385C33.6448 18.4505 34.0287 18.7295 34.462 18.7295H52.454C53.4227 18.7295 53.8255 19.9691 53.0418 20.5385L38.4859 31.114C38.1354 31.3686 37.9888 31.82 38.1227 32.232L43.6825 49.3435C43.9819 50.2648 42.9274 51.0309 42.1437 50.4615L27.5878 39.886C27.2373 39.6314 26.7627 39.6314 26.4122 39.886L11.8563 50.4615C11.0726 51.0309 10.0181 50.2648 10.3175 49.3435L15.8773 32.232C16.0112 31.82 15.8646 31.3686 15.5141 31.114L0.958204 20.5385C0.174491 19.9691 0.577264 18.7295 1.54599 18.7295H19.538C19.9713 18.7295 20.3552 18.4505 20.4891 18.0385L26.0489 0.927051Z" fill="#FFD700"/>
</svg>
